<?xml version="1.0" encoding="UTF-8" standalone="no"?>
<!-- Generator: Adobe Illustrator 16.0.0, SVG Export Plug-In . SVG Version: 6.00 Build 0)  -->

<svg
   xmlns:dc="http://purl.org/dc/elements/1.1/"
   xmlns:cc="http://creativecommons.org/ns#"
   xmlns:rdf="http://www.w3.org/1999/02/22-rdf-syntax-ns#"
   xmlns:svg="http://www.w3.org/2000/svg"
   xmlns="http://www.w3.org/2000/svg"
   xmlns:sodipodi="http://sodipodi.sourceforge.net/DTD/sodipodi-0.dtd"
   xmlns:inkscape="http://www.inkscape.org/namespaces/inkscape"
   version="1.1"
   id="Capa_1"
   x="0px"
   y="0px"
   width="445.068px"
   height="445.067px"
   viewBox="0 0 445.068 445.067"
   style="enable-background:new 0 0 445.068 445.067;"
   xml:space="preserve"
   inkscape:version="0.91 r13725"
   sodipodi:docname="basket_pink.svg"><metadata
     id="metadata4262"><rdf:RDF><cc:Work
         rdf:about=""><dc:format>image/svg+xml</dc:format><dc:type
           rdf:resource="http://purl.org/dc/dcmitype/StillImage" /><dc:title></dc:title></cc:Work></rdf:RDF></metadata><defs
     id="defs4260" /><sodipodi:namedview
     pagecolor="#ffffff"
     bordercolor="#666666"
     borderopacity="1"
     objecttolerance="10"
     gridtolerance="10"
     guidetolerance="10"
     inkscape:pageopacity="0"
     inkscape:pageshadow="2"
     inkscape:window-width="1600"
     inkscape:window-height="876"
     id="namedview4258"
     showgrid="false"
     inkscape:zoom="1.6604242"
     inkscape:cx="222.534"
     inkscape:cy="222.53349"
     inkscape:window-x="0"
     inkscape:window-y="24"
     inkscape:window-maximized="1"
     inkscape:current-layer="Capa_1" /><g
     id="g4220"
     style="fill:#b5286a;fill-opacity:1"><g
       id="g4222"
       style="fill:#b5286a;fill-opacity:1"><path
         d="M412.067,225.13h-0.755c-7.774-86.751-57.385-158.661-124.514-186.268c-1.884,9.285-6.13,18.456-12.394,26.966    c56.553,23.485,98.762,84.848,106.316,159.302H66.344c7.487-73.698,48.903-134.554,104.604-158.565    c-5.881-7.889-9.936-16.361-12.135-24.987C94.869,70.982,48.08,141.095,40.544,225.13H33.42c-16.084,0-25.58,12.354-21.209,27.607    L59.478,417.46c4.37,15.243,20.961,27.607,37.045,27.607h247.574c16.084,0,32.923-12.288,37.608-27.444l50.996-165.049    C437.387,237.418,428.151,225.13,412.067,225.13z"
         id="path4224"
         style="fill:#b5286a;fill-opacity:1" /><path
         d="M222.261,93.244l0.793-0.593c18.476-7.458,32.619-18.465,41.971-30.371c6.941-8.835,11.13-18.14,12.574-26.88    c1.826-11.025-0.774-21.143-8.387-28.124C263.389,1.941,257.336,0,251.599,0c-15.75,0.01-29.157,14.755-29.157,14.755h-0.182    c0,0-13.407-14.745-29.156-14.745c-5.738,0-11.791,1.922-17.614,7.258c-8.138,7.458-10.566,18.551-7.86,30.552    c1.855,8.195,6.11,16.811,12.594,25.006C189.681,74.779,203.853,85.814,222.261,93.244z"
         id="path4226"
         style="fill:#b5286a;fill-opacity:1" /></g></g><g
     id="g4228" /><g
     id="g4230" /><g
     id="g4232" /><g
     id="g4234" /><g
     id="g4236" /><g
     id="g4238" /><g
     id="g4240" /><g
     id="g4242" /><g
     id="g4244" /><g
     id="g4246" /><g
     id="g4248" /><g
     id="g4250" /><g
     id="g4252" /><g
     id="g4254" /><g
     id="g4256" /></svg>